<?xml version="1.0" standalone="no"?>
<!DOCTYPE svg PUBLIC "-//W3C//DTD SVG 20010904//EN"
 "http://www.w3.org/TR/2001/REC-SVG-20010904/DTD/svg10.dtd">
<svg version="1.0" xmlns="http://www.w3.org/2000/svg"
 width="600.000000pt" height="600.000000pt" viewBox="0 0 600.000000 600.000000"
 preserveAspectRatio="xMidYMid meet">
<metadata>
Created by potrace 1.11, written by Peter Selinger 2001-2013
</metadata>
<g transform="translate(0.000000,600.000000) scale(0.100000,-0.100000)"
fill="#000000" stroke="none">
<path d="M0 3000 l0 -3000 3000 0 3000 0 0 3000 0 3000 -3000 0 -3000 0 0
-3000z m5660 0 l0 -2660 -2660 0 -2660 0 0 2660 0 2660 2660 0 2660 0 0 -2660z"/>
<path d="M4095 3610 c-222 -34 -412 -158 -502 -327 -48 -88 -66 -178 -61 -304
3 -101 5 -110 45 -190 91 -184 241 -313 568 -494 236 -131 318 -195 359 -284
18 -39 21 -64 21 -166 0 -116 -1 -123 -33 -187 -61 -125 -170 -195 -322 -205
-173 -12 -356 79 -390 194 -6 21 -14 73 -17 116 l-6 77 -118 0 -119 0 0 -229
0 -229 71 -17 c143 -32 328 -56 484 -61 243 -9 383 15 552 97 86 41 116 62
181 127 124 123 172 243 172 430 0 287 -113 431 -530 679 -442 262 -485 304
-485 478 0 110 23 171 91 244 90 97 203 130 334 97 75 -19 164 -76 186 -118
21 -41 44 -152 44 -215 l0 -53 120 0 120 0 0 224 0 224 -32 11 c-61 19 -192
50 -283 66 -108 19 -366 28 -450 15z"/>
</g>
</svg>
